<svg xmlns="http://www.w3.org/2000/svg" width="1024" height="1024" viewBox="0 0 1024 1024" role="img" aria-labelledby="title">
  <title id="title">My Second Country social avatar</title>
  <rect width="1024" height="1024" fill="#FCFCFC" />
  <rect x="104" y="104" width="816" height="816" rx="24" fill="none" stroke="#1D3A5F" stroke-width="12" />
  <path fill="#1D3A5F" d="M381.54 453.92L381.54 453.92L385.42 259.95Q371.17 238.35 348.27 238.35L348.27 238.35Q347.41 238.35 347.41 235.76Q347.41 233.17 348.27 233.17L348.27 233.17Q356.05 233.17 364.47 233.60Q372.90 234.03 378.94 234.03L378.94 234.03Q387.15 234.03 393.85 233.60Q400.54 233.17 404.00 233.17L404.00 233.17Q410.05 233.17 413.50 237.27Q416.96 241.38 423.87 255.63L423.87 255.63L519.78 450.46L610.06 243.97Q612.22 238.78 615.46 235.98Q618.70 233.17 623.02 233.17L623.02 233.17Q626.05 233.17 630.58 233.60Q635.12 234.03 641.17 234.03L641.17 234.03Q653.26 234.03 661.47 233.60Q669.68 233.17 678.32 233.17L678.32 233.17Q679.18 233.17 679.18 235.76Q679.18 238.35 678.32 238.35L678.32 238.35Q657.58 238.35 648.08 245.05Q638.58 251.74 639.01 269.46L639.01 269.46L648.08 468.18Q648.94 480.70 651.54 487.18Q654.13 493.66 661.47 495.82Q668.82 497.98 683.94 497.98L683.94 497.98Q684.80 497.98 684.80 500.58Q684.80 503.17 683.94 503.17L683.94 503.17Q673.14 503.17 659.74 502.74Q646.35 502.30 631.23 502.30L631.23 502.30Q616.98 502.30 604.45 502.74Q591.92 503.17 581.98 503.17L581.98 503.17Q580.69 503.17 580.69 500.58Q580.69 497.98 581.98 497.98L581.98 497.98Q603.15 497.98 609.20 492.37Q615.25 486.75 613.95 468.18L613.95 468.18L605.74 278.10L510.27 500.14Q509.84 501.87 507.03 501.87Q504.22 501.87 503.36 500.14L503.36 500.14L395.79 279.82L392.34 453.92Q391.90 476.38 400.33 487.18Q408.75 497.98 428.62 497.98L428.62 497.98Q429.92 497.98 429.92 500.58Q429.92 503.17 428.62 503.17L428.62 503.17Q419.12 503.17 409.18 502.74Q399.25 502.30 386.72 502.30L386.72 502.30Q375.06 502.30 364.69 502.74Q354.32 503.17 345.25 503.17L345.25 503.17Q344.38 503.17 344.38 500.58Q344.38 497.98 345.25 497.98L345.25 497.98Q363.39 497.98 372.25 487.18Q381.10 476.38 381.54 453.92Z" />
  <path fill="#1D3A5F" d="M472.27 442.98L472.27 442.98Q472.27 459.62 480.59 471.68Q488.91 483.74 502.22 493.10Q515.54 502.46 530.51 511.62L530.51 511.62Q545.90 520.77 560.26 531.17Q574.61 541.57 583.97 555.50Q593.33 569.44 593.33 589.41L593.33 589.41Q593.33 609.79 582.72 626.02Q572.11 642.24 552.77 651.81Q533.42 661.38 506.38 661.38L506.38 661.38Q495.57 661.38 484.54 659.50Q473.52 657.63 463.54 654.30Q453.55 650.98 445.23 645.98L445.23 645.98Q443.57 644.74 442.53 643.07Q441.49 641.41 441.49 638.08L441.49 638.08L437.33 578.59Q437.33 577.76 437.33 576.93L437.33 576.93Q438.16 576.51 439.41 576.10L439.41 576.10Q441.49 576.10 441.90 577.76L441.90 577.76Q445.65 590.66 451.89 603.97Q458.13 617.28 466.86 628.30Q475.60 639.33 487.87 646.40Q500.14 653.47 516.37 653.47L516.37 653.47Q527.60 653.47 538.21 649.31Q548.82 645.15 555.47 635.38Q562.13 625.60 562.13 608.13L562.13 608.13Q562.13 588.16 553.39 574.43Q544.66 560.70 530.93 550.72Q517.20 540.74 501.81 531.58L501.81 531.58Q487.25 522.43 473.73 512.45Q460.21 502.46 451.89 489.36Q443.57 476.26 443.57 457.54L443.57 457.54Q443.57 435.07 455.42 420.51Q467.28 405.95 485.79 398.88Q504.30 391.81 523.86 391.81L523.86 391.81Q536.75 391.81 550.06 394.30Q563.38 396.80 574.19 401.38L574.19 401.38Q577.94 403.04 579.18 404.91Q580.43 406.78 580.43 408.86L580.43 408.86L582.51 460.86Q582.51 462.11 580.43 462.53Q578.35 462.94 577.52 461.28L577.52 461.28Q576.27 454.21 572.11 443.60Q567.95 432.99 560.88 422.80Q553.81 412.61 542.78 405.74Q531.76 398.88 515.95 398.88L515.95 398.88Q501.39 398.88 491.82 404.91Q482.26 410.94 477.26 420.72Q472.27 430.50 472.27 442.98Z" />
  <path fill="#1D3A5F" d="M543.97 572.42L543.97 572.42Q560.38 572.42 574.42 573.93Q588.46 575.44 600.78 578.90Q613.09 582.35 624.32 587.97L624.32 587.97Q627.78 589.26 628.42 590.78Q629.07 592.29 629.50 597.47L629.50 597.47L635.12 651.90Q635.12 652.77 632.96 653.20L632.96 653.20Q631.23 653.63 630.37 653.20L630.37 653.20Q629.94 652.77 629.94 652.34L629.94 652.34Q619.14 616.48 597.10 598.12Q575.07 579.76 540.94 579.76L540.94 579.76Q506.38 579.76 480.46 595.74Q454.54 611.73 439.86 640.89Q425.17 670.05 425.17 709.79L425.17 709.79Q425.17 739.17 434.24 763.79Q443.31 788.42 459.51 806.78Q475.71 825.14 497.10 835.07Q518.48 845.01 543.10 845.01L543.10 845.01Q577.66 845.01 599.05 827.73Q620.43 810.45 633.39 775.02L633.39 775.02Q634.26 773.73 636.42 774.16Q638.58 774.59 638.58 775.89L638.58 775.89L633.82 825.14Q633.39 830.32 632.31 831.62Q631.23 832.91 628.21 834.64L628.21 834.64Q606.18 844.58 586.09 848.68Q566 852.78 543.10 852.78L543.10 852.78Q497.31 852.78 461.67 834.86Q426.03 816.93 405.73 785.18Q385.42 753.42 385.42 711.52L385.42 711.52Q385.42 680.42 397.30 654.93Q409.18 629.44 430.78 610.86Q452.38 592.29 481.11 582.35Q509.84 572.42 543.97 572.42Z" />
  <line x1="344" y1="808" x2="664" y2="808" stroke="#1D3A5F" stroke-width="11" stroke-linecap="round" />
  <circle cx="736" cy="768" r="25" fill="#BC5A36" />
</svg>
